<svg xmlns="http://www.w3.org/2000/svg" version="1.1" xmlns:xlink="http://www.w3.org/1999/xlink" xmlns:svgjs="http://svgjs.dev/svgjs" width="1000" height="750" viewBox="0 0 1000 750"><rect width="1000" height="750" fill="#ffffff"></rect><g transform="matrix(0.5191111111111111,0,0,0.5191111111111111,240.4444825666667,83)"><svg viewBox="0 0 320 360" data-background-color="#ffffff" preserveAspectRatio="xMidYMid meet" height="1125" width="1000" xmlns="http://www.w3.org/2000/svg" xmlns:xlink="http://www.w3.org/1999/xlink"><g id="tight-bounds" transform="matrix(1,0,0,1,0.000023499999997511622,0)"><svg viewBox="0 0 320 360" height="360" width="320"><g><svg></svg></g><g><svg viewBox="0 0 320 360" height="360" width="320"><g><path transform="translate(-74.99272,-51.79039) scale(4.65793,4.65793)" d="M20.6 59.9l0.8 1-0.4-1.3c-0.1-0.6-0.8 0.1-0.4 0.3M21.5 59.3c0.3 0.5 0.6 1 0.6 1.5 0 0.7 0.6 1 1.1 1.2-0.7-0.8-1.1-3-1.7-2.7M59.9 16.9c1.7 0 3.3-0.2 5.1 0.2 4.4 1.1 8.1 3.3 10.6 6.4l7 11.2c0.3 2.8 0.9 5.9 0.8 9.3 0.7 0 0.6-1 1.4-1.2-0.8 2-1.2 4.5-1.4 7.4-0.5-1.6 0-4 0.1-5.3-0.7 1.1-1.1 0.3-1.1-0.2 0.1-0.8-0.3-0.7-0.6-1-1.1-1-1.8-2.1-2.6-3.8 0.5-1.3 0.6-3.2-1-4.2-0.5-0.3-1.1-0.8-1.4-1.6-0.4-1.1-1.1-2.4-0.9-4.1 0.1-0.5-1.5 1.1-2.4 0.4-3.9-2.7-7.8-5.8-12.5-8.4-2.5 0-4.3-0.9-5.2-2-0.8-1-0.2-2.3 1-2.4 0.7 0 1.5-0.2 2.1 0.2 0.1-0.4 0.5-0.9 1-0.9M50 14.6l0.2 0.1c1 0.2 1.5 1.6 2.6 1.1 0 0.7 0.1 1.4-0.1 1.9-0.3 0.8-1.2 0.8-1.9 0.8-6.7-0.4-10.6 2.4-14.7 4.8-1.1 0.7-2.3 1.2-3.2 2.1-4.3 4-9 7.7-10.1 15.1l-0.9 8.2c-0.1 0.9-1.1 1.8-0.9 2.9l0.7 4.9c-0.7-0.7-1.1 0.2-0.9 0.6 0.1 0.3 0.5 1.3 1.1 0.4 0.8 1.5 1.6 4.4 2.7 5.7 3.4 4 7.8 7.6 11.4 11.2 0.9-0.2 1.6-0.2 1.8-0.8 0.3 0.6-0.3 1.2-0.8 1.3 1.6 1 3.4 1.9 5.8 2.1 3.1 0.2 6 0.7 8.7 1.4 1.4-0.4 2.8-0.6 4.3-0.7 0.5 0 0.8-0.8 1.4-1l0.1-1c0.6 0.9 0.5-0.3 0.1-0.9 0.7 0.6 0.9 1.1 1.2 1.5 0-0.3 0.8-1.4 0.8-0.1l0.2-1.3c0.3-0.2 0.4 1.1 0.7 0.2 0.3-0.9 0.9-0.2 1.5-0.5-0.2 0.4-0.1 1.2 0.6 0.7l0.8-0.7c0.5 1.2 1.3 0.7 1.7 0.5 4.4-2.8 8.8-6.1 13-9.4l-0.1 1.3 0.5-1.6c0.5 0.5 0.9 0.1 1.1-0.2 0.6-1 1.4-2 2.7-2.9-1.6 4.3-3.5 7.7-5.9 10.5l-1 1.2c0 0.7-0.2 1.6-1 1.7-0.4 0.1-1.2-0.2-1.8 0.4-0.3 0.4 0.7 1.2-0.1 0.6-0.7-0.5-1.4 0-2.2 0.2-0.6 0.2 0.4 0.8 0.6 1.2 0.2 0.4 0.4 0.8 0.3 1.3l-1.1-1.2c-1.3 0.7-2.1 2-3.2 3-0.5 0.4-0.3 1.1-0.3 1.7-0.7 0-1.5-0.2-1.9 0.2-0.3 0.4-0.2 1-0.2 1.6-1-0.1-1.1-1.6-2-1.3-0.9 0.2-1.9 0.3-2.7 0.8 0.6 1.2-1 0.5-0.8 0.7-1.5-0.9-2.8-1.6-4.4-1-3.4-1.1-7.6-0.6-10.7-0.2 0-0.5 0.1-1-0.1-1.1-0.2 0.5-0.8 0.3-0.7 0.3-1.9-1.3-3.8-2.1-5.8-3.2-1.8 0.2-3.5-0.7-4-1.2-1.4-1.3-3-0.6-4.3-0.9-2.8-0.7-3.8-3.6-4.1-5.6-0.2-1-1-1.4-1.3-1.3-1.3-4.2-3.3-8-4.9-11.9-0.4-1-0.3-2-0.3-3.1 0.5 0.2 1 0.1 0.9-0.6-0.5-3.3-1.7-5.8-3-8.2 0.7-3.4 0.8-7.4 2.4-10.4 1.4-2.7 4-4.1 5.8-6.4 0.6-0.8 0.6-1.9 1.2-2.6 2-2 4-4.1 6.2-5.9 1-0.8 2.2 0 3.7-0.3 0.5-1.8 2.5-3.4 4.4-2.9 0.8 0.2 2.4-1.9 2.9-2.1 0.8-0.3 0.4 0.8 0.4 1.5 1.9-1.5 4.5-2.3 6.9-3.2" fill="#ff0000" fill-rule="nonzero" stroke="none" stroke-width="1" stroke-linecap="butt" stroke-linejoin="miter" stroke-miterlimit="10" stroke-dasharray="" stroke-dashoffset="0" font-family="none" font-weight="none" font-size="none" text-anchor="none" style="mix-blend-mode: normal" data-fill-palette-color="tertiary"></path></g><g transform="matrix(1,0,0,1,93.43868148144199,90)"><svg viewBox="0 0 133.12263703711602 180" height="180" width="133.12263703711602"><g><svg viewBox="0 0 133.12263703711602 180" height="180" width="133.12263703711602"><g><svg viewBox="0 0 192 259.6102418731707" height="180" width="133.12263703711602"><g transform="matrix(1,0,0,1,0,136.60536382439025)"><svg viewBox="0 0 192 123.00487804878047" height="123.00487804878047" width="192"><g id="textblocktransform"><svg viewBox="0 0 192 123.00487804878047" height="123.00487804878047" width="192" id="textblock"><g><svg viewBox="0 0 192 123.00487804878047" height="123.00487804878047" width="192"><g transform="matrix(1,0,0,1,0,0)"><svg width="192" viewBox="1.65 -37 61.5 39.4" height="123.00487804878047" data-palette-color="#ff0000"><path d="M4.75-1.7Q2.8-2.6 1.65-4.35L1.65-4.35Q2.6-5.55 3.95-5.55L3.95-5.55Q4.6-5.55 5.38-5.3 6.15-5.05 6.4-4.95L6.4-4.95Q7.85-4.45 9.45-4.45L9.45-4.45Q12-4.45 14.23-5.65 16.45-6.85 17.55-8.9L17.55-8.9Q20.4-14.2 20.4-21.3L20.4-21.3Q20.4-24.55 19.8-28.9L19.8-28.9Q18.4-28.85 17.32-28.4 16.25-27.95 14.55-26.95L14.55-26.95Q13.4-26.3 12.1-26.3L12.1-26.3Q11.3-26.3 10.65-26.5L10.65-26.5Q10.1-26.65 9.53-27.03 8.95-27.4 8.75-27.85L8.75-27.85Q8.6-28.15 8.6-28.5L8.6-28.5Q8.6-29 8.95-29.45 9.3-29.9 9.8-30.15L9.8-30.15Q13.55-31.95 16.9-33.2L16.9-33.2Q17.7-33.45 18.85-33.55L18.85-33.55Q19.9-33.65 20.4-33.8L20.4-33.8Q21.9-34.15 22.9-34.15L22.9-34.15Q24.95-34.15 26.6-32.7L26.6-32.7 26.6-29.85Q26.65-28.45 26.65-25.6L26.65-25.6 26.65-23.85 26.6-22.45Q26.5-18 26.15-14.93 25.8-11.85 24.65-8.9L24.65-8.9Q23.35-5.65 21.18-3.65 19-1.65 15.65-1L15.65-1Q13.05-0.45 10.75-0.45L10.75-0.45Q7.55-0.45 4.75-1.7L4.75-1.7ZM37-31.65Q37.05-31.6 35.75-32.75L35.75-32.75Q34.85-33.55 34.4-33.9L34.4-33.9Q34.6-35.25 35.4-35.8 36.2-36.35 37.5-36.65L37.5-36.65Q38.85-37 40.4-37L40.4-37Q41.9-37 43.45-36.7L43.45-36.7Q47.9-35.9 51.3-34.85 54.7-33.8 57.65-31.9L57.65-31.9Q59.7-30.65 61.1-28.95L61.1-28.95Q63.15-26.3 63.15-23.55L63.15-23.55Q63.15-21.2 61.6-18.7L61.6-18.7Q55.7-9.35 49.45-3.95L49.45-3.95Q45.65-0.6 41.05 1.55L41.05 1.55Q39.35 2.4 37.5 2.4L37.5 2.4Q35.3 2.4 33.25 1.15L33.25 1.15Q32.5 0.65 32.1 0.13 31.7-0.4 31.7-1.1L31.7-1.1 31.75-1.55 32.1-4.15Q32.7-8.75 33.2-11L33.2-11 33.45-12.1Q34.95-18.6 35.7-22.58 36.45-26.55 36.8-30.75L36.8-30.75 37-31.65ZM43.6-32.25Q43-32.3 42-32.15L42-32.15 40.9-32Q42.1-31 42.65-30.25 43.2-29.5 43.2-28.65L43.2-28.65Q43.2-28.45 43.1-27.95L43.1-27.95Q42.45-25.05 41.35-20.8L41.35-20.8 39.55-13.6Q38.35-8.7 37.45-4.5L37.45-4.5Q37.3-3.95 37.27-3.28 37.25-2.6 37.25-2.3L37.25-2.3Q37.7-2.1 37.75-2.1L37.75-2.1 38.4-2.35Q45.9-6 51.2-12.55L51.2-12.55Q53.35-15.3 54.82-17.75 56.3-20.2 57.05-22.9L57.05-22.9Q57.25-23.55 57.25-24.45L57.25-24.45Q57.25-26 56.47-27.25 55.7-28.5 54.35-29.15L54.35-29.15Q49.35-31.4 43.6-32.25L43.6-32.25Z" opacity="1" transform="matrix(1,0,0,1,0,0)" fill="#ff0000" class="wordmark-text-0" data-fill-palette-color="primary" id="text-0"></path></svg></g></svg></g></svg></g></svg></g><g transform="matrix(1,0,0,1,36.672,0)"><svg viewBox="0 0 118.656 118.656" height="118.656" width="118.656"><g><svg xmlns="http://www.w3.org/2000/svg" xmlns:xlink="http://www.w3.org/1999/xlink" version="1.1" x="0" y="0" viewBox="2 2 60 60" style="enable-background:new 0 0 64 64;" xml:space="preserve" height="118.656" width="118.656" class="icon-icon-0" data-fill-palette-color="accent" id="icon-0"><path d="M20 38c-0.278 0-0.542 0.115-0.732 0.318-0.189 0.203-0.285 0.476-0.266 0.753l1 14C20.04 53.595 20.476 54 21 54h22c0.524 0 0.96-0.405 0.998-0.929l1-14c0.02-0.277-0.077-0.55-0.266-0.753C44.542 38.115 44.278 38 44 38h-2.103l-0.936-3.274c-0.07-0.245-0.23-0.454-0.449-0.584l-3.89-2.321C37.482 30.782 38 29.451 38 28c0-3.309-2.691-6-6-6s-6 2.691-6 6c0 1.451 0.518 2.782 1.377 3.821l-3.89 2.321c-0.219 0.13-0.379 0.339-0.449 0.584L22.103 38H20zM42.069 52H21.931l-0.857-12h1.783 18.286 1.783L42.069 52zM32 24c2.206 0 4 1.794 4 4 0 1.31-0.642 2.465-1.618 3.195-0.002 0.001-0.004 0.002-0.006 0.003-0.164 0.122-0.335 0.226-0.511 0.319-0.022 0.012-0.043 0.024-0.066 0.036-0.171 0.087-0.347 0.16-0.527 0.22-0.03 0.01-0.06 0.018-0.09 0.028-0.77 0.24-1.595 0.24-2.365 0-0.03-0.009-0.06-0.018-0.089-0.028-0.179-0.06-0.356-0.133-0.527-0.22-0.022-0.011-0.044-0.024-0.066-0.036-0.176-0.093-0.348-0.198-0.511-0.319-0.002-0.001-0.004-0.002-0.006-0.003C28.642 30.465 28 29.31 28 28 28 25.794 29.794 24 32 24zM24.853 35.655l4.141-2.471C29.879 33.7 30.904 34 32 34s2.121-0.3 3.006-0.815l4.141 2.471L39.817 38H24.183L24.853 35.655z" fill="#ff0000" data-fill-palette-color="accent"></path><path d="M61 56H3c-0.552 0-1 0.447-1 1v4c0 0.553 0.448 1 1 1h58c0.552 0 1-0.447 1-1v-4C62 56.447 61.552 56 61 56zM60 60H4v-2h56V60z" fill="#ff0000" data-fill-palette-color="accent"></path><rect x="47" y="45" width="2" height="2" fill="#ff0000" data-fill-palette-color="accent"></rect><rect x="51" y="45" width="2" height="2" fill="#ff0000" data-fill-palette-color="accent"></rect><rect x="55" y="45" width="2" height="2" fill="#ff0000" data-fill-palette-color="accent"></rect><rect x="55" y="41" width="2" height="2" fill="#ff0000" data-fill-palette-color="accent"></rect><rect x="55" y="37" width="2" height="2" fill="#ff0000" data-fill-palette-color="accent"></rect><rect x="55" y="33" width="2" height="2" fill="#ff0000" data-fill-palette-color="accent"></rect><rect x="55" y="29" width="2" height="2" fill="#ff0000" data-fill-palette-color="accent"></rect><rect x="55" y="25" width="2" height="2" fill="#ff0000" data-fill-palette-color="accent"></rect><rect x="55" y="21" width="2" height="2" fill="#ff0000" data-fill-palette-color="accent"></rect><rect x="15" y="45" width="2" height="2" fill="#ff0000" data-fill-palette-color="accent"></rect><rect x="11" y="45" width="2" height="2" fill="#ff0000" data-fill-palette-color="accent"></rect><rect x="7" y="45" width="2" height="2" fill="#ff0000" data-fill-palette-color="accent"></rect><rect x="7" y="41" width="2" height="2" fill="#ff0000" data-fill-palette-color="accent"></rect><rect x="7" y="37" width="2" height="2" fill="#ff0000" data-fill-palette-color="accent"></rect><rect x="7" y="33" width="2" height="2" fill="#ff0000" data-fill-palette-color="accent"></rect><rect x="7" y="28" width="2" height="2" fill="#ff0000" data-fill-palette-color="accent"></rect><rect x="7" y="24" width="2" height="2" fill="#ff0000" data-fill-palette-color="accent"></rect><rect x="7" y="20" width="2" height="2" fill="#ff0000" data-fill-palette-color="accent"></rect><rect x="30" y="45" width="4" height="2" fill="#ff0000" data-fill-palette-color="accent"></rect><path d="M9.293 6.293l-3 3c-0.391 0.391-0.391 1.023 0 1.414l3 3 1.414-1.414L8.414 10l2.293-2.293L9.293 6.293z" fill="#ff0000" data-fill-palette-color="accent"></path><path d="M20.707 6.293l-1.414 1.414L21.586 10l-2.293 2.293 1.414 1.414 3-3c0.391-0.391 0.391-1.023 0-1.414L20.707 6.293z" fill="#ff0000" data-fill-palette-color="accent"></path><rect x="10.528" y="9" transform="matrix(0.4472 -0.8944 0.8944 0.4472 -0.6525 18.9443)" width="8.944" height="2" fill="#ff0000" data-fill-palette-color="accent"></rect><path d="M3 18h24c0.552 0 1-0.447 1-1V3c0-0.553-0.448-1-1-1H3C2.448 2 2 2.447 2 3v14C2 17.553 2.448 18 3 18zM4 4h22v12H4V4z" fill="#ff0000" data-fill-palette-color="accent"></path><path d="M53 7c-2.206 0-4 1.794-4 4s1.794 4 4 4 4-1.794 4-4S55.206 7 53 7zM53 13c-1.103 0-2-0.897-2-2s0.897-2 2-2 2 0.897 2 2S54.103 13 53 13z" fill="#ff0000" data-fill-palette-color="accent"></path><path d="M61 8h-0.584c-0.017-0.041-0.033-0.082-0.05-0.122l0.413-0.413c0.188-0.188 0.293-0.441 0.293-0.707 0-0.265-0.105-0.52-0.293-0.707L57.95 3.222c-0.375-0.375-1.039-0.375-1.415 0l-0.413 0.413C56.082 3.618 56.041 3.601 56 3.584V3c0-0.553-0.448-1-1-1h-4c-0.552 0-1 0.447-1 1v0.584c-0.041 0.017-0.082 0.034-0.123 0.051l-0.413-0.413c-0.188-0.188-0.442-0.293-0.708-0.293s-0.52 0.105-0.707 0.293l-2.829 2.829c-0.188 0.188-0.293 0.442-0.293 0.707 0 0.266 0.105 0.52 0.293 0.707l0.413 0.413c-0.017 0.04-0.034 0.081-0.05 0.122H45c-0.552 0-1 0.447-1 1v4c0 0.553 0.448 1 1 1h0.584c0.017 0.041 0.034 0.082 0.051 0.123l-0.413 0.412c-0.188 0.188-0.293 0.441-0.293 0.707 0 0.265 0.105 0.52 0.293 0.707l2.829 2.829c0.375 0.375 1.039 0.375 1.415 0l0.413-0.413c0.041 0.017 0.082 0.034 0.123 0.051V19c0 0.553 0.448 1 1 1h4c0.552 0 1-0.447 1-1v-0.584c0.041-0.017 0.082-0.034 0.123-0.051l0.413 0.413c0.188 0.188 0.442 0.293 0.708 0.293s0.52-0.105 0.707-0.293l2.829-2.829c0.188-0.188 0.293-0.442 0.293-0.707 0-0.266-0.105-0.52-0.293-0.707l-0.413-0.412c0.017-0.041 0.034-0.082 0.051-0.123H61c0.552 0 1-0.447 1-1V9C62 8.447 61.552 8 61 8zM60 12h-0.294c-0.442 0-0.833 0.291-0.958 0.715-0.12 0.404-0.278 0.787-0.468 1.138-0.211 0.39-0.141 0.872 0.172 1.185l0.205 0.205-1.414 1.415-0.205-0.206c-0.312-0.312-0.794-0.381-1.185-0.172-0.349 0.189-0.732 0.347-1.139 0.469C54.291 16.874 54 17.264 54 17.706V18h-2v-0.294c0-0.442-0.291-0.832-0.714-0.958-0.407-0.122-0.79-0.279-1.139-0.469-0.389-0.21-0.872-0.141-1.185 0.172l-0.205 0.206-1.414-1.415 0.205-0.205c0.313-0.312 0.384-0.795 0.172-1.185-0.19-0.351-0.348-0.733-0.468-1.138C47.126 12.291 46.736 12 46.294 12H46v-2h0.294c0.442 0 0.833-0.291 0.958-0.715 0.12-0.403 0.277-0.786 0.469-1.139 0.211-0.39 0.141-0.871-0.173-1.184l-0.205-0.205 1.414-1.415 0.205 0.206c0.313 0.313 0.797 0.384 1.185 0.172 0.349-0.189 0.732-0.347 1.139-0.469C51.709 5.126 52 4.736 52 4.294V4h2v0.294c0 0.442 0.291 0.832 0.714 0.958 0.407 0.122 0.79 0.279 1.139 0.469 0.389 0.211 0.871 0.141 1.185-0.172l0.205-0.206 1.414 1.415-0.205 0.205c-0.313 0.312-0.384 0.794-0.173 1.184 0.191 0.353 0.349 0.735 0.469 1.139C58.874 9.709 59.264 10 59.706 10H60V12z" fill="#ff0000" data-fill-palette-color="accent"></path><rect x="23.5" y="19.379" transform="matrix(0.7071 -0.7071 0.7071 0.7071 -8.0269 23.6213)" width="2" height="4.243" fill="#ff0000" data-fill-palette-color="accent"></rect><rect x="37.379" y="20.5" transform="matrix(0.7071 -0.7071 0.7071 0.7071 -3.6335 34.2279)" width="4.243" height="2" fill="#ff0000" data-fill-palette-color="accent"></rect><rect x="31" y="15" width="2" height="3" fill="#ff0000" data-fill-palette-color="accent"></rect></svg></g></svg></g><g></g></svg></g></svg></g></svg></g></svg></g><defs></defs></svg><rect width="320" height="360" fill="none" stroke="none" visibility="hidden"></rect></g></svg></g></svg>