<?xml version="1.0" standalone="no"?>
<!DOCTYPE svg PUBLIC "-//W3C//DTD SVG 20010904//EN"
 "http://www.w3.org/TR/2001/REC-SVG-20010904/DTD/svg10.dtd">
<svg version="1.0" xmlns="http://www.w3.org/2000/svg"
 width="500.000000pt" height="500.000000pt" viewBox="0 0 500.000000 500.000000"
 preserveAspectRatio="xMidYMid meet">

<g transform="translate(0.000000,500.000000) scale(0.100000,-0.100000)"
fill="#000000" stroke="none">
<path d="M1520 3256 l0 -774 428 -4 c235 -2 484 -2 555 0 l127 4 -1 397 c-1
218 -4 385 -6 371 -26 -154 -118 -250 -283 -291 -69 -18 -104 -21 -199 -17
-274 11 -403 118 -427 354 l-7 64 170 0 170 0 5 -52 c7 -68 39 -98 104 -98 25
0 54 5 66 11 45 24 48 55 48 444 l0 365 -375 0 -375 0 0 -774z"/>
<path d="M2630 3775 l0 -255 298 0 c327 0 388 -7 497 -59 68 -32 133 -85 177
-145 l28 -39 0 376 0 377 -500 0 -500 0 0 -255z"/>
<path d="M2990 2970 l0 -280 93 0 c189 1 237 59 237 284 -1 222 -47 275 -237
276 l-93 0 0 -280z"/>
<path d="M3606 2632 c-18 -35 -103 -115 -145 -137 -18 -9 -31 -17 -29 -18 1
-1 47 -1 101 1 l97 3 0 90 c0 49 -2 89 -5 89 -2 0 -11 -13 -19 -28z"/>
<path d="M2755 2130 c-95 -14 -193 -73 -270 -162 -42 -48 -95 -152 -94 -183 0
-11 6 -1 14 22 18 60 56 120 108 175 45 46 95 84 101 77 2 -2 -3 -42 -10 -89
-7 -47 -16 -124 -19 -172 -6 -83 -8 -87 -35 -98 -16 -7 -31 -19 -35 -28 -7
-19 19 -42 47 -42 11 0 18 -7 18 -20 0 -11 4 -20 9 -20 5 0 7 8 4 18 -3 15 5
21 39 31 24 7 62 24 86 38 36 20 46 22 60 12 14 -11 15 -11 5 1 -10 11 -2 25
43 72 63 69 90 116 105 189 26 123 -48 198 -176 179z m138 -50 c28 -31 29 -37
25 -101 -8 -100 -57 -176 -182 -277 -9 -7 -42 -25 -72 -39 -61 -28 -79 -23
-68 21 6 24 10 26 68 28 l61 2 -62 3 -63 4 0 61 c0 71 27 264 41 290 14 26 95
48 163 45 52 -3 62 -7 89 -37z m-313 -410 c0 -23 -5 -30 -19 -30 -10 0 -24 6
-30 14 -10 11 -7 17 11 30 32 22 38 20 38 -14z"/>
<path d="M1795 2106 c-32 -32 -64 -102 -65 -138 0 -34 9 -58 23 -58 7 0 7 4
-1 12 -28 28 -7 107 43 166 41 49 55 31 55 -77 0 -47 -3 -110 -7 -139 -5 -46
-11 -56 -42 -79 -36 -26 -103 -102 -110 -126 -1 -6 5 -1 14 13 30 42 98 110
111 110 26 0 -31 -137 -72 -175 -15 -14 -23 -25 -17 -25 29 0 91 98 112 177 8
29 21 48 39 58 21 12 22 14 5 10 -22 -6 -22 -6 -17 117 4 91 2 129 -8 147 -19
35 -34 36 -63 7z"/>
<path d="M2186 1941 c-4 -6 -2 -11 3 -11 7 0 9 -22 5 -62 -5 -54 -11 -67 -37
-93 -46 -42 -97 -105 -97 -118 0 -7 9 2 19 18 26 41 101 112 101 95 0 -32 -34
-130 -52 -149 -25 -28 -56 -27 -68 2 -8 17 -9 18 -7 3 3 -29 31 -42 61 -28 31
14 60 68 75 142 7 35 20 62 34 73 l22 18 -23 -11 -24 -12 7 55 c7 54 -5 102
-19 78z"/>
<path d="M2160 1900 c-6 -11 -8 -20 -6 -20 3 0 10 9 16 20 6 11 8 20 6 20 -3
0 -10 -9 -16 -20z"/>
<path d="M1975 1885 c-25 -24 -35 -75 -15 -75 5 0 15 9 22 20 13 20 13 20 30
-2 14 -19 20 -20 41 -11 18 8 28 8 35 1 13 -13 37 4 53 36 7 13 1 10 -16 -9
l-26 -30 5 40 c5 37 4 39 -10 20 -48 -66 -71 -73 -81 -24 l-6 31 -23 -29 c-29
-35 -32 -16 -3 21 11 14 25 23 31 20 7 -4 8 -2 4 4 -10 16 -14 15 -41 -13z"/>
<path d="M2940 1879 c-17 -32 -9 -63 19 -67 13 -2 28 1 33 6 6 6 1 8 -15 5
-14 -3 -27 0 -31 5 -10 16 11 60 31 65 14 4 14 5 -4 6 -13 1 -27 -8 -33 -20z"/>
<path d="M3035 1862 c-16 -20 -22 -32 -14 -25 13 10 14 7 11 -21 -5 -39 10
-53 32 -30 16 16 20 65 8 96 -6 15 -12 12 -37 -20z m31 -47 c-4 -14 -11 -25
-16 -25 -13 0 -13 12 1 47 13 32 24 15 15 -22z"/>
<path d="M3195 1881 c-11 -10 -32 -21 -47 -25 -22 -5 -27 -2 -31 16 -2 13 -5
-2 -5 -32 l-1 -55 14 33 c16 37 50 44 60 12 9 -28 48 -25 82 6 l28 26 -29 -21
c-30 -22 -61 -27 -70 -12 -9 13 11 61 25 61 8 0 7 -6 -2 -17 -13 -16 -12 -17
4 -4 9 7 17 17 17 22 0 15 -25 10 -45 -10z"/>
<path d="M2264 1844 c-18 -14 -18 -15 4 -4 12 6 22 13 22 15 0 8 -5 6 -26 -11z"/>
<path d="M1918 1843 c7 -3 16 -2 19 1 4 3 -2 6 -13 5 -11 0 -14 -3 -6 -6z"/>
<path d="M1681 1624 c-1 -21 5 -34 15 -38 13 -5 14 -3 6 6 -5 7 -12 24 -15 38
-4 22 -4 21 -6 -6z"/>
</g>
</svg>
