<?xml version="1.0" standalone="no"?>
<!DOCTYPE svg PUBLIC "-//W3C//DTD SVG 20010904//EN" "http://www.w3.org/TR/2001/REC-SVG-20010904/DTD/svg10.dtd">
<svg 

version="1.0" xmlns="http://www.w3.org/2000/svg" width="308.7612359841165" height="304.915625" viewBox="0 0 500.000000 500.000000" preserveAspectRatio="xMidYMid meet">
  <g transform="translate(0.000000,500.000000) scale(0.100000,-0.100000)" fill="#000000" stroke="none">
    <path d="M1520 3255 l0 -785 555 0 555 0 -1 413 c-1 252 -5 393 -10 363 -12
-73 -63 -170 -108 -206 -93 -73 -227 -107 -386 -97 -259 16 -394 135 -407 357
l-3 55 165 0 165 0 6 -49 c7 -66 41 -96 109 -96 37 0 56 6 77 24 l28 24 3 391
3 391 -376 0 -375 0 0 -785z" />
    <path d="M2630 3781 l0 -259 323 -5 c251 -3 333 -7 374 -19 130 -39 219 -100
275 -187 l28 -45 0 387 0 387 -500 0 -500 0 0 -259z" />
    <path d="M2990 2968 l0 -291 95 6 c133 9 184 37 221 122 26 59 26 262 1 327
-35 90 -109 128 -252 128 l-65 0 0 -292z" />
    <path d="M3612 2646 c-18 -41 -75 -98 -136 -138 l-59 -38 106 0 107 0 0 100
c0 55 -2 100 -3 100 -2 0 -9 -11 -15 -24z" />
    <path d="M2745 2133 c-11 -2 -36 -10 -56 -18 -20 -8 -39 -12 -41 -9 -7 6 -60
-38 -139 -116 -97 -96 -149 -222 -99 -238 13 -4 13 -3 2 11 -30 36 31 151 129
242 33 30 64 55 68 55 4 0 2 -30 -5 -67 -7 -38 -16 -116 -20 -174 -7 -105 -7
-106 -35 -116 -16 -6 -32 -18 -35 -27 -8 -21 13 -46 38 -46 11 0 22 -9 25 -20
3 -11 9 -20 14 -20 5 0 9 9 9 20 0 11 6 20 13 20 6 0 41 14 77 31 35 16 72 28
82 26 10 -3 18 -1 18 4 0 5 -5 9 -11 9 -6 0 15 29 48 63 98 105 136 221 98
300 -27 57 -104 87 -180 70z m115 -28 c96 -50 70 -217 -54 -339 l-51 -51 -79
3 -79 4 7 94 c7 96 31 252 40 262 13 13 114 41 149 42 21 0 51 -7 67 -15z
m-147 -410 c0 -5 -25 -20 -55 -32 -52 -21 -53 -21 -56 -1 -7 40 5 49 60 46 29
-2 52 -7 51 -13z m-133 -25 c0 -23 -5 -30 -19 -30 -10 0 -24 6 -30 14 -10 11
-7 17 11 30 32 22 38 20 38 -14z" />
    <path d="M1792 2108 c-68 -73 -83 -208 -23 -208 11 0 8 5 -8 16 -20 14 -22 23
-18 55 6 44 51 127 74 136 8 3 19 0 25 -8 10 -14 4 -227 -7 -264 -4 -11 -27
-35 -52 -53 -56 -42 -103 -115 -103 -159 0 -41 18 -50 59 -29 36 19 72 78 97
160 16 49 24 61 51 72 45 19 63 17 63 -6 0 -28 18 -25 32 5 11 24 11 25 25 5
15 -21 48 -27 58 -9 5 6 11 5 18 -5 16 -20 26 -12 70 54 l37 55 0 -58 c0 -56
-1 -59 -46 -100 -92 -84 -121 -177 -56 -177 17 0 38 10 51 24 22 23 61 130 61
165 0 10 17 27 40 40 22 12 43 27 47 34 4 6 -10 1 -31 -11 -20 -12 -40 -22
-44 -22 -4 0 -5 29 -4 65 2 42 0 65 -7 65 -6 0 -29 -29 -52 -65 -22 -36 -43
-65 -46 -65 -3 0 -2 17 2 38 l7 37 -35 -40 c-30 -35 -36 -38 -51 -26 -9 7 -16
23 -16 35 -1 19 -3 18 -26 -9 l-26 -30 16 32 c9 18 25 33 38 36 22 3 22 4 4
12 -14 6 -24 2 -41 -17 -12 -13 -34 -30 -51 -35 -16 -6 -36 -14 -45 -17 -14
-6 -15 6 -11 116 4 132 -5 178 -36 178 -10 0 -28 -10 -40 -22z m11 -390 c-19
-56 -85 -134 -102 -123 -31 18 14 114 79 169 42 35 48 23 23 -46z m373 35 c-3
-10 -10 -37 -15 -59 -14 -51 -46 -94 -72 -94 -45 0 -31 57 32 125 43 47 64 57
55 28z" />
    <path d="M2952 1894 c-17 -12 -22 -24 -20 -47 4 -38 35 -48 74 -23 24 16 24
16 24 -13 0 -16 5 -33 11 -37 17 -10 40 19 39 52 0 37 -3 74 -7 74 -2 0 -21
-18 -43 -40 -39 -39 -72 -51 -85 -30 -3 5 6 21 22 34 35 30 21 56 -15 30z m18
-14 c0 -5 -5 -10 -11 -10 -5 0 -7 5 -4 10 3 6 8 10 11 10 2 0 4 -4 4 -10z m96
-55 c-4 -14 -11 -25 -16 -25 -5 0 -7 7 -5 15 3 8 7 22 10 31 9 26 18 8 11 -21z" />
    <path d="M3198 1888 c-32 -35 -76 -42 -81 -14 -2 12 -5 -6 -5 -39 -1 -59 -1
-59 11 -25 14 41 51 54 60 21 7 -30 49 -27 84 5 l28 26 -29 -21 c-54 -39 -98
-19 -49 23 22 19 25 27 16 37 -9 9 -17 6 -35 -13z m27 -8 c-3 -5 -11 -10 -16
-10 -6 0 -7 5 -4 10 3 6 11 10 16 10 6 0 7 -4 4 -10z" />
  </g>
</svg>